<svg xmlns="http://www.w3.org/2000/svg" width="481.71" height="80" viewBox="0 0 481.71 80"><title>burpsuite-logo</title><path d="M115.53,73.05c-2.68,0-3.77-1.1-3.77-3.68V10.42c0-2.58,1.09-3.67,3.77-3.67H135c6.45,0,13.69,5.76,13.69,16.28a17.58,17.58,0,0,1-5.75,13.2c5.26,4.36,8,8.13,8,17.26,0,13-9.42,19.56-17.26,19.56Zm3.58-40.4h15.28c4,0,7.05-3.47,7.05-9.62s-2.68-9-7.05-9H119.11Zm0,33.15h15.28c4.27,0,9.53-3.47,9.53-12.31,0-2.77.3-5.26-2.88-9.52-1.89-2.58-3.77-4-6.65-4H119.11Z" fill="#ec663b"/><path d="M195.63,53.89a19.85,19.85,0,1,1-39.7,0V10.72a3.67,3.67,0,0,1,7.24-1.2,3.45,3.45,0,0,1,0,1.2V54.19c0,2.78,1.69,6.65,5.16,9.53a10,10,0,0,0,7.35,2.38c2.78,0,4.66-.2,7.44-2.38s5.26-6.75,5.26-9.53V10.72A4,4,0,0,1,192,6.45a4.08,4.08,0,0,1,3.68,4.27Z" fill="#ec663b"/><path d="M224.41,6.75c11.61,0,18.75,7.44,18.75,19.55,0,6.75-1.29,11.81-4.56,15.28a15.83,15.83,0,0,1-9.23,4.67L241,67.19a3.7,3.7,0,0,1,.69,2.58c0,1.49-1.78,3.28-3,3.28s-2.88.09-4-2l-13.6-24.51H209.72V69.37c0,2.58-1,3.68-3.57,3.68s-3.68-1.1-3.68-3.68V10.42c0-2.58,1.09-3.67,3.68-3.67ZM209.72,14V39.2h16.87c2.78,0,4.27,0,6.55-3s2.78-6.65,2.78-9.93c0-8.83-5.26-12.31-9.53-12.31Z" fill="#ec663b"/><path d="M272,6.75c11.62,0,18.86,7.44,18.86,19.55,0,9.43-2.48,14.89-8.73,18.26-3.58,2-6.45,2-9.83,2H257.45V69.37c0,2.58-1,3.68-3.67,3.68s-3.67-1.1-3.67-3.68V10.42c0-2.58,1.09-3.67,3.67-3.67ZM257.45,14V39.2h16.78c2.78,0,4.26,0,6.55-3s2.78-6.65,2.78-9.93c0-8.8-5.26-12.27-9.56-12.27Z" fill="#ec663b"/><path d="M324.74,42.87a16.45,16.45,0,0,1,7.84,14.49c0,7.25-7.54,16.18-20.74,16.18a46.09,46.09,0,0,1-10.62-1.79c-7-2-8-1.48-8-5.45,0-1.19.9-3.08,4.37-3.08,1.79,0,6.75,3,14.09,3s13.7-5.06,13.7-10c0-2.78-1.89-5.26-4.47-6.94l-20-13.5c-4.66-3.18-7.44-7.64-7.44-12.61,0-10,7.94-17.07,19.35-17.07a14.29,14.29,0,0,1,4.07.4c8.54,2.28,13.5,3.48,13.5,7.35,0,1.88-1.29,3.47-4,3.47s-6.55-4-13.4-4-12.3,4.56-12.3,9.23a9.12,9.12,0,0,0,4.06,7Z" fill="#404042"/><path d="M377,53.89a19.85,19.85,0,1,1-39.69.89c0-.3,0-.59,0-.89V10.72a3.67,3.67,0,1,1,7.22-1.33s0,.09,0,.13a3.45,3.45,0,0,1,0,1.2V54.19c0,2.78,1.69,6.65,5.16,9.53a10,10,0,0,0,7.35,2.38c2.87,0,4.76-.2,7.54-2.38s5.16-6.75,5.16-9.53V10.72a4,4,0,0,1,3.57-4.27A4.06,4.06,0,0,1,377,10.72Z" fill="#404042"/><path d="M383.89,10.42c0-2.58,1.09-3.67,3.67-3.67s3.58,1.09,3.58,3.67v59c0,2.58-1,3.68-3.58,3.68s-3.67-1.1-3.67-3.68Z" fill="#404042"/><path d="M417.64,14V69.37c0,2.58-1.1,3.68-3.68,3.68s-3.57-1.1-3.57-3.68V14H398c-2.19,0-3.48-1.19-3.48-3.57S395.8,6.75,398,6.75h32.15c2.18,0,3.47,1.29,3.47,3.67S432.32,14,430.14,14Z" fill="#404042"/><path d="M444.13,65.8h21.94c2.18,0,3.47,1.19,3.47,3.57s-1.29,3.68-3.47,3.68H440.56c-2.58,0-3.67-1.1-3.67-3.68V10.42c0-2.58,1.09-3.67,3.67-3.67h25.51c2.18,0,3.47,1.29,3.47,3.67S468.25,14,466.07,14H444.13V33.25h15.49c2.18,0,3.47,1.29,3.47,3.67s-1.29,3.67-3.47,3.67H444.13Z" fill="#404042"/><path d="M49,77.31,9.54,69.57v-60L49,1.79Z" fill="#404042"/><path d="M50.83,77.31l39.6-7.74v-60L50.83,1.79Z" fill="#ec663b"/><path d="M69.58,10.92l3.38.69V21.93c-4,4-6,6.07-10,10.62L73,33V43.17l13.5-.39A165.28,165.28,0,0,0,73,58.36v8l-3.38.69V57.66c4-5,6-7.44,9.83-11.81l-9.83.6V35.83L56,35.53A178.07,178.07,0,0,1,69.58,20.45Z" fill="#fff"/></svg>