<?xml version="1.0" encoding="UTF-8" standalone="no"?>
<svg width="238px" height="28px" viewBox="0 0 238 28" version="1.1" xmlns="http://www.w3.org/2000/svg" xmlns:xlink="http://www.w3.org/1999/xlink">
    <!-- Generator: Sketch 42 (36781) - http://www.bohemiancoding.com/sketch -->
    <title>Artboard Copy</title>
    <desc>Created with Sketch.</desc>
    <defs/>
    <g id="home" stroke="none" stroke-width="1" fill="none" fill-rule="evenodd">
        <g id="Artboard-Copy">
            <g id="Group-3">
                <g id="Group-2" transform="translate(181.000000, 15.000000)" fill="#90918E">
                    <text id="by" font-family="ProximaNova-Regular, Proxima Nova" font-size="7.0405" font-weight="normal">
                        <tspan x="0" y="11">by   </tspan>
                    </text>
                    <path d="M18.8,10.9610004 L20.4016,10.9610004 L20.4016,3.28060038 L18.8,3.28060038 L18.8,10.9610004 Z M18.8013,2.14570038 L20.399,2.14570038 L20.399,0.600000381 L18.8013,0.600000381 L18.8013,2.14570038 Z" id="Fill-24"/>
                    <path d="M29.4535,3.20000076 L27.2227,9.83390076 C26.8392,10.9194008 26.1554,11.0585008 25.6029,11.0585008 C24.7813,11.0585008 24.286,10.6802008 23.9948,9.83650076 L22.1358,4.32710076 L21.4,4.32710076 L21.4,3.20000076 L23.3188,3.20000076 L25.235,9.36720076 C25.3182,9.62980076 25.3702,9.78840076 25.6029,9.78840076 C25.8434,9.78840076 25.8915,9.62850076 25.9695,9.36720076 L27.9247,3.20000076 L29.4535,3.20000076" id="Fill-25"/>
                    <path d="M34.0191,9.79490076 C35.2593,9.79490076 36.0276,8.85630076 36.0276,7.73310076 L36.0276,6.52540076 C36.0276,5.40090076 35.2658,4.46360076 34.0191,4.46360076 C32.7061,4.46360076 32.0119,5.40090076 32.0119,6.52540076 L32.0119,7.73310076 C32.0119,8.85630076 32.7373,9.79490076 34.0191,9.79490076 M34.0191,3.20000076 C36.0913,3.20000076 37.5369,4.56760076 37.5369,6.52540076 L37.5369,7.73310076 C37.5369,9.68830076 36.0913,11.0585008 34.0191,11.0585008 C31.9482,11.0585008 30.5,9.68830076 30.5,7.73310076 L30.5,6.52540076 C30.5,4.56760076 31.9482,3.20000076 34.0191,3.20000076" id="Fill-26"/>
                    <path d="M49.3726,3.55490076 C48.5744,3.34950076 47.3277,3.20000076 46.4073,3.20000076 C44.3039,3.20000076 43,4.52600076 43,6.66450076 L43,7.50560076 C43,9.64150076 44.3039,10.9883008 46.4073,10.9883008 C46.4554,10.9883008 46.8298,10.9896008 47.0001,10.9727008 L47.0001,9.68310076 C46.9351,9.68310076 46.4554,9.70130076 46.4073,9.70130076 C45.2633,9.70130076 44.4937,8.81860076 44.4937,7.50560076 L44.4937,6.66450076 C44.4937,5.35150076 45.2633,4.47010076 46.4073,4.47010076 C46.9247,4.47010076 47.706,4.51170076 47.9751,4.56890076 L48.0609,4.58710076 L48.0635,10.9896008 L49.6638,10.9896008 L49.6638,3.82010076 C49.6638,3.68360076 49.6638,3.63160076 49.3726,3.55490076" id="Fill-27"/>
                    <polygon id="Fill-28" points="51.3 10.9610004 52.9016 10.9610004 52.9016 0.600000381 51.3 0.600000381"/>
                    <path d="M13.8106,0.600000381 L11,0.600000381 L11,10.9597004 L12.6653,10.9597004 L12.6653,2.04040038 L13.6416,2.04040038 C13.8496,2.04170038 14.0251,2.05080038 14.2032,2.05470038 C15.6462,2.08200038 16.3534,2.65400038 16.3534,3.77720038 C16.3534,3.82270038 16.356,3.85130038 16.356,3.89810038 C16.356,4.93680038 15.7853,5.62580038 14.211,5.62580038 C14.0615,5.62580038 13.9068,5.62190038 13.7469,5.62320038 C13.7469,6.02100038 13.7456,6.75680038 13.7443,7.01550038 C13.9068,7.02330038 14.0589,7.03110038 14.2136,7.03110038 C16.473,7.03110038 18.0668,6.14320038 18.0668,3.91370038 C18.0668,3.87080038 18.0642,3.82400038 18.0642,3.77980038 C18.0642,1.46970038 16.3274,0.600000381 13.8106,0.600000381" id="Fill-29"/>
                    <path d="M39.9198,1.70000076 L39.9198,3.35620076 L42.5276,3.35620076 L42.5276,4.59640076 L39.9198,4.59640076 L39.9198,9.07230076 C39.9198,9.77430076 40.3683,9.79250076 41.0183,9.79250076 L42.5289,9.79250076 L42.5289,11.0353008 L40.4853,11.0353008 C38.9747,11.0353008 38.3,10.4308008 38.3,9.07230076 L38.3,1.92230076 L39.9198,1.70000076" id="Fill-30"/>
                    <path d="M54.9608,9.91149924 C55.1571,9.90499924 55.2767,9.81139924 55.2767,9.65409924 C55.2767,9.48769924 55.1701,9.40449924 54.9439,9.40449924 L54.745,9.40449924 L54.745,9.92189924 L54.9608,9.91149924 Z M54.7476,10.4717992 L54.6215,10.4717992 L54.6215,9.29139924 L54.9543,9.29139924 C55.2533,9.29139924 55.4002,9.42789924 55.4002,9.64889924 C55.4002,9.82179924 55.2975,9.93229924 55.1571,9.98559924 L55.4626,10.4717992 L55.3131,10.4717992 L55.031,10.0154992 L54.7476,10.0323992 L54.7476,10.4717992 Z M54.9881,8.95729924 C54.4772,8.95729924 54.0625,9.38239924 54.0625,9.89199924 C54.0625,10.4002992 54.4772,10.8227992 54.9881,10.8227992 C55.5016,10.8227992 55.9163,10.4002992 55.9163,9.89199924 C55.9163,9.38239924 55.5016,8.95729924 54.9881,8.95729924 Z M53.9,9.89459924 C53.9,9.29139924 54.3849,8.79999924 54.9881,8.79999924 C55.59,8.79999924 56.0749,9.29139924 56.0749,9.89459924 C56.0749,10.4951992 55.59,10.9865992 54.9881,10.9865992 C54.3849,10.9865992 53.9,10.4951992 53.9,9.89459924 L53.9,9.89459924 Z" id="Fill-31"/>
                </g>
                <g id="RabbitMQ_logo" fill-rule="nonzero">
                    <path d="M22.9150302,10.7227306 L15.3907743,10.7227306 C14.7890547,10.6509513 14.3308645,10.1208884 14.3308645,9.49696017 L14.3308645,1.60123166 C14.3308645,0.927610063 13.7843484,0.386504193 13.1163844,0.386504193 L10.4831709,0.386504193 C9.80968649,0.386504193 9.26869084,0.933131551 9.26869084,1.60123166 L9.26869084,9.57978249 C9.23556866,10.1816247 8.73873591,10.6675157 8.14253662,10.7227306 L6.17176674,10.7227306 C5.59212854,10.6509513 5.14497907,10.1650603 5.10633653,9.57978249 L5.10633653,1.60123166 C5.10633653,0.927610063 4.55982051,0.386504193 3.89185649,0.386504193 L1.25864295,0.386504193 C0.585158564,0.386504193 0.0441629105,0.933131551 0.0441629105,1.60123166 L0.0441629105,11.9374581 L0.0441629105,24.642403 C0.0441629105,25.3160246 0.590678928,25.8571305 1.25864295,25.8571305 L3.89185649,25.8571305 L10.4831709,25.8571305 L13.1163844,25.8571305 L22.9205505,25.8571305 C23.5940349,25.8571305 24.1350306,25.3105031 24.1350306,24.642403 L24.1350306,11.9374581 C24.1295102,11.2638365 23.5885146,10.7227306 22.9150302,10.7227306 Z M19.4482417,19.4356394 C19.4482417,20.109261 18.9017257,20.6503669 18.2337617,20.6503669 L15.6005481,20.6503669 C14.9270637,20.6503669 14.3860681,20.1037395 14.3860681,19.4356394 L14.3860681,16.9509696 C14.3860681,16.277348 14.9325841,15.7362421 15.6005481,15.7362421 L18.2337617,15.7362421 C18.9072461,15.7362421 19.4482417,16.2828695 19.4482417,16.9509696 L19.4482417,19.4356394 Z" id="Shape" fill="#FF6600"/>
                    <g id="Group" transform="translate(29.423539, 0.000000)">
                        <path d="M12.2441669,25.8792165 L10.985524,20.0043527 C10.803352,19.1264361 10.6101392,18.3479062 10.3893247,17.6742846 C10.1740305,16.9951415 9.8704105,16.4264282 9.48950539,15.9626232 C9.10307993,15.4988181 8.60072682,15.1509644 7.97692571,14.9080189 C7.3531246,14.6705949 6.53611075,14.5491221 5.52588418,14.5491221 L2.88162991,14.5491221 L2.88162991,25.8792165 L0,25.8792165 L0,0.430676101 L6.30425547,0.430676101 C7.34760423,0.430676101 8.35783081,0.54110587 9.34045557,0.75644392 C10.31756,0.971781971 11.1842571,1.33067872 11.9350266,1.82761268 C12.685796,2.32454665 13.2875157,2.98712526 13.7457059,3.80982704 C14.2038961,4.63252883 14.430231,5.64296122 14.430231,6.8466457 C14.430231,7.76873428 14.3198237,8.58591457 14.1045295,9.28714361 C13.8892354,9.98837264 13.5635339,10.5957364 13.1329455,11.1037133 C12.7023571,11.6116903 12.1613615,12.0423664 11.5209993,12.3902201 C10.8806371,12.7380739 10.1243472,13.0196698 9.26317048,13.2350079 L9.26317048,13.3067872 C10.1022658,13.5221253 10.7757502,13.7981997 11.2781033,14.1239675 C11.7804564,14.4552568 12.1834429,14.8472825 12.4870629,15.305566 C12.7851626,15.7638496 13.0170179,16.288391 13.1826288,16.8791903 C13.3482397,17.4699895 13.5028099,18.1491326 13.6573801,18.9055765 L15.1257968,25.8792165 L12.2441669,25.8792165 Z M11.5430807,7.15032757 C11.5430807,6.09572327 11.3553884,5.27302149 10.985524,4.6932652 C10.6156596,4.11350891 10.1188269,3.68283281 9.51158685,3.40675839 C8.89882646,3.13068396 8.20326062,2.96503931 7.42488933,2.90982442 C6.64651803,2.85460954 5.84606528,2.8270021 5.02905143,2.8270021 L2.88715027,2.8270021 L2.88715027,12.1583176 L4.47149469,12.1583176 C5.33819181,12.1583176 6.18832783,12.0975812 7.03846386,11.970587 C7.88859989,11.8435928 8.63936937,11.6006473 9.30733339,11.2417505 C9.97529741,10.8828538 10.5162931,10.3748768 10.9303203,9.71781971 C11.3333069,9.06076258 11.5430807,8.20493187 11.5430807,7.15032757 Z" id="Shape" fill="#FF6600"/>
                        <path d="M28.3967514,25.8792165 L28.3967514,23.5546698 L28.3249867,23.5546698 C28.0820907,24.0129534 27.7619096,24.4105005 27.3534027,24.7528328 C26.9448958,25.0951651 26.4977463,25.3822825 26.0119543,25.6086635 C25.5261623,25.8350445 25.0127684,26.0062107 24.4828135,26.1221619 C23.9473382,26.2381132 23.4339444,26.2933281 22.942632,26.2933281 C22.1863422,26.2933281 21.5128578,26.1773768 20.9276992,25.9399528 C20.3370203,25.7080503 19.8457079,25.376761 19.4537621,24.9516064 C19.0562959,24.5264518 18.7526759,24.0074319 18.542902,23.4000681 C18.3331282,22.7927044 18.2282413,22.1190828 18.2282413,21.3736819 C18.2282413,20.7000603 18.36073,20.1037395 18.6257075,19.5736766 C18.890685,19.0436137 19.2384679,18.5798087 19.680097,18.17674 C20.1162057,17.7736714 20.6240792,17.4313391 21.2037174,17.1387002 C21.7833556,16.8460613 22.3795549,16.6141588 22.9978356,16.4374712 C23.6161164,16.2552621 24.2399175,16.1227463 24.8637186,16.039924 C25.4875197,15.9571017 26.0726783,15.9129298 26.6081536,15.9129298 C26.9062532,15.9129298 27.1988325,15.9074083 27.4748507,15.9018868 C27.7508689,15.8963653 28.0379278,15.8632364 28.3415478,15.8025 L28.3415478,15.4270388 C28.3415478,14.7810246 28.3305071,14.1350105 28.313946,13.4889963 C28.2973849,12.8429822 28.1869776,12.2632259 27.9882445,11.7497275 C27.7895114,11.236229 27.46381,10.8165959 27.0166605,10.5018711 C26.569511,10.1871462 25.901547,10.0270231 25.0293295,10.0270231 C24.5104153,10.0270231 24.0467048,10.0767165 23.6326775,10.1705818 C23.2186502,10.2644471 22.8598265,10.4190487 22.5617269,10.6343868 C22.2636273,10.8497248 22.0207312,11.1368422 21.8330389,11.495739 C21.6453465,11.8546357 21.5183781,12.2963548 21.4466134,12.8208962 L18.6533093,12.8208962 C18.66435,11.9319366 18.8520424,11.1810142 19.2219068,10.5626074 C19.5862508,9.94420073 20.0665225,9.44174528 20.651681,9.0497196 C21.2423599,8.65769392 21.910324,8.37609801 22.6610934,8.19388889 C23.4118629,8.01167977 24.1736731,7.92333595 24.9575648,7.92333595 C26.9504161,7.92333595 28.4298736,8.37609801 29.3959373,9.27610063 C30.362001,10.1761032 30.847793,11.6061688 30.847793,13.5607757 L30.847793,25.8792165 L28.3967514,25.8792165 Z M26.8455292,17.9172301 C26.2824521,17.9172301 25.6641714,17.9779665 25.0017277,18.1049607 C24.339284,18.2319549 23.7154829,18.43625 23.1358447,18.7288889 C22.5562065,19.0215278 22.0759349,19.396989 21.6839891,19.871837 C21.2920432,20.346685 21.0988305,20.9319628 21.0988305,21.6276703 C21.0988305,22.3730713 21.3251654,22.9859565 21.7723149,23.466326 C22.2249847,23.9466955 22.821184,24.1841195 23.5664331,24.1841195 C24.0080622,24.1841195 24.4386506,24.1178616 24.8471575,23.9743029 C25.2556644,23.8362657 25.6365695,23.6485351 25.9898728,23.4055896 C26.3431761,23.1681656 26.6633572,22.8755267 26.9559365,22.5387159 C27.2429954,22.2019051 27.4803711,21.8374869 27.6570227,21.4399397 C27.8005522,21.1141719 27.9164798,20.8160115 28.010326,20.5509801 C28.1041722,20.2859486 28.1704165,20.0098742 28.2200998,19.7393213 C28.2697831,19.4687683 28.2973849,19.1926939 28.3084256,18.900055 C28.3194664,18.6129376 28.3249867,18.2816483 28.3249867,17.9117086 L26.8455292,17.9117086 L26.8455292,17.9172301 Z" id="Shape" fill="#FF6600"/>
                        <path d="M49.8212834,17.2877804 C49.8212834,18.4417715 49.7053558,19.5571122 49.4679801,20.6393239 C49.2306045,21.7215356 48.8386586,22.6822746 48.2866223,23.5215409 C47.7345859,24.3608071 47.0114182,25.0344287 46.1171193,25.5368842 C45.2228203,26.0393396 44.1077069,26.2933281 42.7772992,26.2933281 C41.5407377,26.2933281 40.5029093,26.100076 39.663814,25.7190933 C38.8247187,25.3325891 38.1457139,24.8025262 37.6378405,24.1178616 C37.129967,23.4331971 36.7601026,22.6270597 36.5392881,21.6939282 C36.3184735,20.7663181 36.2080662,19.7503643 36.2080662,18.6571095 L36.2080662,0.430676101 L38.708791,0.430676101 L38.708791,11.236229 L38.7971169,11.236229 C38.9516871,10.7061661 39.1890627,10.2423611 39.4982031,9.83377096 C39.8128638,9.42518082 40.1772078,9.08284853 40.5967555,8.79573113 C41.0163031,8.51413522 41.4800137,8.29879717 41.9823668,8.14971698 C42.4847199,8.00063679 43.0091545,7.92333595 43.5501501,7.92333595 C44.3892454,7.92333595 45.1289742,8.05585168 45.763816,8.32640461 C46.3986578,8.59695755 46.9506942,8.96689727 47.4088844,9.43622379 C47.872595,9.90555031 48.2590204,10.4466562 48.5681608,11.0650629 C48.8828216,11.6834696 49.1257176,12.3405267 49.3078896,13.0362343 C49.4900616,13.7319418 49.6170299,14.4442138 49.694315,15.1730503 C49.7826409,15.8963653 49.8212834,16.6031158 49.8212834,17.2877804 Z M46.9396535,17.2215225 C46.9396535,16.8129324 46.917572,16.3546488 46.8789295,15.8466719 C46.8347666,15.338695 46.7630019,14.8141536 46.6636353,14.2840907 C46.5642688,13.7485063 46.4207393,13.2294864 46.2385673,12.7215094 C46.0563953,12.2135325 45.82454,11.7607704 45.5374811,11.3632233 C45.2504222,10.9656761 44.9026392,10.6454298 44.4941323,10.4024843 C44.0856254,10.1540173 43.6108741,10.0325445 43.0698785,10.0325445 C42.4957606,10.0325445 41.9823668,10.1650603 41.5407377,10.4300917 C41.0991086,10.6951232 40.7126831,11.0429769 40.3869816,11.473653 C40.0612802,11.9043291 39.7907824,12.3957416 39.5754882,12.9478905 C39.360194,13.5000393 39.1890627,14.0632311 39.0620943,14.6374659 C38.935126,15.2117007 38.8468001,15.7748926 38.7915965,16.3270414 C38.7363929,16.8791903 38.708791,17.3706027 38.708791,17.8012788 C38.708791,18.4749004 38.7584743,19.1816509 38.8523205,19.9215304 C38.9461667,20.6669313 39.1393794,21.3571174 39.420918,21.9920886 C39.7024565,22.6270597 40.1054431,23.1516012 40.6298777,23.5657128 C41.1543122,23.9798244 41.8443577,24.1841195 42.7110548,24.1841195 C43.2851726,24.1841195 43.7930461,24.0736897 44.2346752,23.8583517 C44.670784,23.6430136 45.0461687,23.3503747 45.3608294,22.9859565 C45.6754902,22.6215383 45.9294269,22.1963836 46.1336804,21.7160142 C46.3379338,21.2356447 46.4980244,20.7387107 46.6194724,20.2252123 C46.7409204,19.7117138 46.8237259,19.1926939 46.8734091,18.6791955 C46.917572,18.1656971 46.9396535,17.6798061 46.9396535,17.2215225 Z" id="Shape" fill="#FF6600"/>
                        <path d="M67.5582123,17.2877804 C67.5582123,18.4417715 67.4422847,19.5571122 67.204909,20.6393239 C66.9675334,21.7215356 66.5755876,22.6822746 66.0235512,23.5215409 C65.4715148,24.3608071 64.7483472,25.0344287 63.8540482,25.5368842 C62.9597493,26.0393396 61.8446358,26.2933281 60.5142281,26.2933281 C59.2776666,26.2933281 58.2398382,26.100076 57.4007429,25.7190933 C56.5616476,25.3325891 55.8826429,24.8025262 55.3747694,24.1178616 C54.8668959,23.4331971 54.4970316,22.6270597 54.276217,21.6939282 C54.0554024,20.7663181 53.9449952,19.7503643 53.9449952,18.6571095 L53.9449952,0.430676101 L56.44572,0.430676101 L56.44572,11.236229 L56.5340458,11.236229 C56.688616,10.7061661 56.9259916,10.2423611 57.235132,9.83377096 C57.5497927,9.42518082 57.9141368,9.08284853 58.3336844,8.79573113 C58.7532321,8.51413522 59.2169426,8.29879717 59.7192957,8.14971698 C60.2216488,8.00063679 60.7460834,7.92333595 61.287079,7.92333595 C62.1261743,7.92333595 62.8659031,8.05585168 63.5007449,8.32640461 C64.1355868,8.59695755 64.6876231,8.96689727 65.1458133,9.43622379 C65.6095239,9.90555031 65.9959494,10.4466562 66.3050897,11.0650629 C66.6197505,11.6834696 66.8626465,12.3405267 67.0448185,13.0362343 C67.2269905,13.7319418 67.3539589,14.4442138 67.431244,15.1730503 C67.5195698,15.8963653 67.5582123,16.6031158 67.5582123,17.2877804 Z M64.6765824,17.2215225 C64.6765824,16.8129324 64.654501,16.3546488 64.6158584,15.8466719 C64.5716955,15.338695 64.4999308,14.8141536 64.4005642,14.2840907 C64.3011977,13.7485063 64.1576682,13.2294864 63.9754962,12.7215094 C63.7933242,12.2135325 63.5614689,11.7607704 63.27441,11.3632233 C62.9873511,10.9656761 62.6395682,10.6454298 62.2310613,10.4024843 C61.8225543,10.1540173 61.347803,10.0325445 60.8068074,10.0325445 C60.2326896,10.0325445 59.7192957,10.1650603 59.2776666,10.4300917 C58.8360375,10.6951232 58.449612,11.0429769 58.1239106,11.473653 C57.7982091,11.9043291 57.5277113,12.3957416 57.3124171,12.9478905 C57.0971229,13.5000393 56.9259916,14.0632311 56.7990233,14.6374659 C56.6720549,15.2117007 56.5837291,15.7748926 56.5285254,16.3270414 C56.4733218,16.8791903 56.44572,17.3706027 56.44572,17.8012788 C56.44572,18.4749004 56.4954033,19.1816509 56.5892494,19.9215304 C56.6830956,20.6669313 56.8763084,21.3571174 57.1578469,21.9920886 C57.4393855,22.6270597 57.842372,23.1516012 58.3668066,23.5657128 C58.8912411,23.9798244 59.5812866,24.1841195 60.4479837,24.1841195 C61.0221016,24.1841195 61.529975,24.0736897 61.9716042,23.8583517 C62.4077129,23.6430136 62.7830976,23.3503747 63.0977584,22.9859565 C63.4124191,22.6215383 63.6663558,22.1963836 63.8706093,21.7160142 C64.0748628,21.2356447 64.2349533,20.7387107 64.3564013,20.2252123 C64.4778493,19.7117138 64.5606548,19.1926939 64.6103381,18.6791955 C64.654501,18.1656971 64.6765824,17.6798061 64.6765824,17.2215225 Z" id="Shape" fill="#FF6600"/>
                        <path d="M71.9855441,3.74356918 L71.9855441,0.430676101 L75.2977624,0.430676101 L75.2977624,3.74356918 L71.9855441,3.74356918 Z M72.3830103,25.8792165 L72.3830103,8.32088312 L74.8837351,8.32088312 L74.8837351,25.8792165 L72.3830103,25.8792165 Z" id="Shape" fill="#FF6600"/>
                        <path d="M84.7707067,10.4245702 L84.7707067,21.2301232 C84.7707067,22.1687762 84.9970416,22.8920912 85.4552318,23.4111111 C85.913422,23.930131 86.64211,24.1841195 87.6412959,24.1841195 C87.9890788,24.1841195 88.2871784,24.1565121 88.5245541,24.1012972 C88.7674501,24.0460823 89.0434683,23.9577385 89.358129,23.8417872 L89.358129,26.0945545 C88.9882646,26.1552909 88.6184003,26.2049843 88.2485359,26.2381132 C87.8841919,26.2767636 87.5143275,26.2933281 87.1389428,26.2933281 C86.3108882,26.2933281 85.5932409,26.2160273 84.9860009,26.0614256 C84.3787609,25.9068239 83.8708874,25.6528354 83.4623805,25.2939387 C83.0538736,24.9405634 82.7502535,24.4767584 82.5515204,23.8970021 C82.3527873,23.3172458 82.2534208,22.6049738 82.2534208,21.7546646 L82.2534208,10.4245702 L79.388352,10.4245702 L79.388352,8.31536164 L82.2534208,8.31536164 L82.2534208,4.22946017 L84.7541456,2.64479298 L84.7541456,8.31536164 L89.4906178,8.31536164 L89.4906178,10.4245702 L84.7707067,10.4245702 Z" id="Shape" fill="#FF6600"/>
                        <polygon id="Shape" fill="#B8B8B8" points="114.067277 25.9485404 114.067277 3.55890461 113.995513 3.55890461 106.504379 25.9430189 103.661392 25.9430189 96.1868191 3.55890461 96.0984932 3.55890461 96.0984932 25.9430189 93.5260037 25.9430189 93.5260037 0.5 97.8484486 0.5 105.069084 22.1497563 105.140849 22.1497563 112.378046 0.5 116.645287 0.5 116.645287 25.9485404"/>
                        <path d="M130.832622,25.9571305 C129.645744,25.9571305 128.591355,25.7804429 127.680495,25.4270676 C126.769635,25.0736924 125.969182,24.5878014 125.284657,23.9693947 C124.600132,23.350988 124.026014,22.627673 123.556783,21.7994497 C123.087552,20.9712264 122.712167,20.0877883 122.425108,19.1436138 C122.138049,18.1994392 121.928276,17.2221358 121.801307,16.2061819 C121.674339,15.190228 121.613615,14.1853171 121.613615,13.1914492 C121.613615,12.1368449 121.668818,11.0822406 121.784746,10.0331578 C121.900674,8.98407497 122.088366,7.97364258 122.358864,6.99633912 C122.629362,6.01903566 122.993706,5.11903304 123.446376,4.27424531 C123.904566,3.43497906 124.478684,2.70614258 125.174249,2.08773587 C125.869815,1.46932916 126.69787,0.983438179 127.647372,0.630062917 C128.602395,0.276687655 129.717509,0.100000024 130.987193,0.100000024 C132.223754,0.100000024 133.305745,0.282209143 134.238687,0.646627382 C135.166108,1.01104562 135.966561,1.51350107 136.634525,2.14295076 C137.302489,2.77240044 137.854525,3.5122799 138.290634,4.36811061 C138.726743,5.21841984 139.074526,6.12946543 139.328462,7.09572591 C139.582399,8.0619864 139.759051,9.0668973 139.858417,10.1104586 C139.957784,11.1540199 140.012987,12.1810168 140.012987,13.1914492 C140.012987,13.6828617 139.996426,14.2460535 139.957784,14.8755032 C139.919141,15.5049529 139.858417,16.16201 139.770091,16.8466746 C139.681766,17.5313391 139.554797,18.2215252 139.394707,18.9172327 C139.234616,19.6129403 139.024842,20.2699974 138.770906,20.8828826 C138.516969,21.4957678 138.213349,22.0534382 137.860045,22.5558936 C137.506742,23.0583491 137.092715,23.4558963 136.629004,23.7430137 L136.700769,23.814793 L141.939594,23.4890252 L141.939594,25.9571305 L130.832622,25.9571305 Z M136.882941,13.1527988 C136.882941,12.4902201 136.86086,11.7669052 136.822217,10.9828538 C136.778054,10.1988024 136.689728,9.40922958 136.551719,8.62517822 C136.41371,7.84112686 136.209457,7.07363996 135.95,6.33928199 C135.690542,5.60492403 135.331719,4.9478669 134.89561,4.3736321 C134.453981,3.80491879 133.918506,3.34663524 133.283664,3.00430296 C132.648822,2.66197067 131.881491,2.49080453 130.992713,2.49080453 C130.054251,2.49080453 129.253798,2.65644919 128.585834,2.98773849 C127.91787,3.3190278 127.354793,3.76074688 126.891083,4.31841721 C126.427372,4.87608755 126.057508,5.51658021 125.770449,6.24541669 C125.48891,6.97425317 125.273616,7.73069709 125.119046,8.52579143 C124.969996,9.32088577 124.870629,10.1159801 124.820946,10.9110744 C124.771263,11.7116903 124.749181,12.4570912 124.749181,13.1527988 C124.749181,13.8153774 124.776783,14.5276494 124.837507,15.2951363 C124.898231,16.0626232 125.003118,16.8301101 125.163209,17.6031185 C125.317779,18.3706054 125.538593,19.1160063 125.820132,19.8337998 C126.101671,20.5515933 126.466015,21.192086 126.913164,21.7442348 C127.360314,22.2963837 127.901309,22.7381027 128.536151,23.0693921 C129.170993,23.4006814 129.927283,23.566326 130.788459,23.566326 C131.760043,23.566326 132.588098,23.4117243 133.267103,23.0969995 C133.946108,22.7822747 134.509185,22.3626415 134.961854,21.8381001 C135.414524,21.3080372 135.767828,20.7006735 136.027285,20.0104874 C136.286742,19.3203014 136.479955,18.5859434 136.606923,17.812935 C136.733891,17.0399266 136.811176,16.2503538 136.838778,15.4552595 C136.86638,14.6491221 136.882941,13.8816352 136.882941,13.1527988 Z" id="Shape" fill="#B8B8B8"/>
                    </g>
                </g>
            </g>
        </g>
    </g>
</svg>