<?xml version="1.0" encoding="UTF-8" standalone="no"?>
<!-- Created with Inkscape (http://www.inkscape.org/) -->

<svg
   xmlns:dc="http://purl.org/dc/elements/1.1/"
   xmlns:cc="http://creativecommons.org/ns#"
   xmlns:rdf="http://www.w3.org/1999/02/22-rdf-syntax-ns#"
   xmlns:svg="http://www.w3.org/2000/svg"
   xmlns="http://www.w3.org/2000/svg"
   xmlns:sodipodi="http://sodipodi.sourceforge.net/DTD/sodipodi-0.dtd"
   xmlns:inkscape="http://www.inkscape.org/namespaces/inkscape"
   version="1.1"
   width="338.92072"
   height="134.78435"
   id="svg3375"
   inkscape:version="0.91 r13725"
   sodipodi:docname="Tails-logo-flat-inverted.svg">
  <sodipodi:namedview
     pagecolor="#ffffff"
     bordercolor="#666666"
     borderopacity="1"
     objecttolerance="10"
     gridtolerance="10"
     guidetolerance="10"
     inkscape:pageopacity="0"
     inkscape:pageshadow="2"
     inkscape:window-width="1858"
     inkscape:window-height="1057"
     id="namedview53"
     showgrid="false"
     fit-margin-top="0"
     fit-margin-left="0"
     fit-margin-right="0"
     fit-margin-bottom="0"
     inkscape:zoom="1.373203"
     inkscape:cx="-2.0877072"
     inkscape:cy="97.26"
     inkscape:window-x="-8"
     inkscape:window-y="-8"
     inkscape:window-maximized="1"
     inkscape:current-layer="svg3375" />
  <defs
     id="defs3377" />
  <metadata
     id="metadata3380">
    <rdf:RDF>
      <cc:Work
         rdf:about="">
        <dc:format>image/svg+xml</dc:format>
        <dc:type
           rdf:resource="http://purl.org/dc/dcmitype/StillImage" />
        <dc:title></dc:title>
      </cc:Work>
    </rdf:RDF>
  </metadata>
  <g
     transform="matrix(0.52842331,0,0,0.52842331,49.438049,46.530189)"
     id="text3064"
     style="font-style:normal;font-weight:normal;font-size:61.55144501px;line-height:125%;font-family:Sans;letter-spacing:0px;word-spacing:0px;fill:#56347c;fill-opacity:1;stroke:none;enable-background:new">
    <path
       d="m 146.40953,78.028847 33.47986,0 0,-119.441639 40.49252,0 0,-28.050688 -114.4649,0 0,28.050688 40.49252,0 0,119.441639"
       id="path5241"
       style="font-variant:normal;font-weight:bold;font-stretch:normal;font-size:226.21522522px;font-family:'Source Sans Pro';-inkscape-font-specification:'Source Sans Pro Bold';fill:#56347c;fill-opacity:1"
       inkscape:connector-curvature="0" />
    <path
       d="m 212.79027,46.811146 c 0,19.00206 12.89428,33.932283 33.25363,33.932283 12.66804,0 23.30018,-5.881604 32.80121,-14.251559 l 0.67865,0 2.48836,11.536977 27.14583,0 0,-64.245124 c 0,-34.38468 -15.83509,-50.672211 -44.5644,-50.672211 -17.64477,0 -33.70608,6.10782 -47.95763,14.70399 l 11.7632,21.94287681 C 239.25744,-6.5756412 248.7585,-10.421306 258.25953,-10.421306 c 11.98939,0 16.96614,6.3340359 17.64478,16.2874959 C 231.56617,10.39049 212.79027,23.284786 212.79027,46.811146 m 31.67013,-2.488368 c 0,-8.59617 7.69134,-15.382638 31.44391,-18.549648 l 0,19.680724 c -5.88159,5.88159 -10.85834,9.50104 -18.54965,9.50104 -7.91752,0 -12.89426,-3.393236 -12.89426,-10.632116"
       id="path5243"
       style="font-variant:normal;font-weight:bold;font-stretch:normal;font-size:226.21522522px;font-family:'Source Sans Pro';-inkscape-font-specification:'Source Sans Pro Bold';fill:#56347c;fill-opacity:1"
       inkscape:connector-curvature="0" />
    <path
       d="m 351.42697,-50.687616 c 11.31075,0 19.22829,-7.238898 19.22829,-17.418573 0,-10.179675 -7.91754,-17.192357 -19.22829,-17.192357 -11.08454,0 -19.2283,7.012682 -19.2283,17.192357 0,10.179675 8.14376,17.418573 19.2283,17.418573 m -16.51371,128.716463 33.25363,0 0,-112.202752 -33.25363,0 0,112.202752"
       id="path5245"
       style="font-variant:normal;font-weight:bold;font-stretch:normal;font-size:226.21522522px;font-family:'Source Sans Pro';-inkscape-font-specification:'Source Sans Pro Bold';fill:#56347c;fill-opacity:1"
       inkscape:connector-curvature="0" />
    <path
       d="m 397.21082,43.191702 c 0,22.6215 7.69134,37.551727 30.53905,37.551727 7.4651,0 13.12049,-1.131077 16.73993,-2.714582 l -4.07187,-24.65746 c -1.80972,0.45243 -2.71459,0.452431 -4.07188,0.452431 -2.71458,0 -5.88159,-2.26216 -5.88159,-9.274825 l 0,-125.097019 -33.25364,0 0,123.739728"
       id="path5247"
       style="font-variant:normal;font-weight:bold;font-stretch:normal;font-size:226.21522522px;font-family:'Source Sans Pro';-inkscape-font-specification:'Source Sans Pro Bold';fill:#56347c;fill-opacity:1"
       inkscape:connector-curvature="0" />
    <path
       d="m 451.76403,65.134579 c 11.31075,9.274815 28.27692,15.60885 42.98089,15.60885 30.0866,0 46.14791,-15.835086 46.14791,-36.194436 0,-20.585565 -16.0613,-28.503123 -30.31284,-33.706068 -11.53697,-4.2980851 -21.94288,-7.0126794 -21.94288,-14.2515593 0,-5.655375 4.07189,-8.8223937 12.66806,-8.8223937 7.91752,0 15.60885,3.6194494 23.75259,9.5010393 l 14.93021,-19.9069393 c -9.72725,-7.23888 -22.39533,-14.25156 -39.58767,-14.25156 -26.01472,0 -42.98089,14.25158 -42.98089,35.0633602 0,18.5496298 16.0613,27.8244778 29.6342,33.0274228 11.53696,4.5243 22.84773,7.91754 22.84773,15.382635 0,5.88159 -4.29809,9.50104 -14.25155,9.50104 -9.50103,0 -18.77588,-4.071882 -28.95555,-11.763192 l -14.93021,20.811801"
       id="path5249"
       style="font-variant:normal;font-weight:bold;font-stretch:normal;font-size:226.21522522px;font-family:'Source Sans Pro';-inkscape-font-specification:'Source Sans Pro Bold';fill:#56347c;fill-opacity:1"
       inkscape:connector-curvature="0" />
  </g>
  <g
     transform="matrix(0.52356334,0,0,0.49506861,89.833771,-131.60813)"
     id="g3777"
     style="fill:#56347c;fill-opacity:1;enable-background:new">
    <g
       transform="matrix(1.1068913,-0.00147632,0.00147632,1.1068913,82.041299,617.01076)"
       id="text3014-8-5-8-6-2-4"
       style="font-style:normal;font-weight:normal;font-size:46.73732758px;line-height:79.00000215%;font-family:Sans;text-align:end;letter-spacing:0px;word-spacing:0px;text-anchor:end;display:inline;fill:#56347c;fill-opacity:1;stroke:none;enable-background:new">
      <path
         d="m -44.825494,-126.19021 c 0,2.58576 0.811813,4.35971 3.608044,4.35971 0.60134,0 1.503352,-0.24053 2.345228,-0.5412 l -0.360805,-1.08241 c -0.511138,0.24053 -1.262815,0.451 -1.804021,0.451 -1.984422,0 -2.435429,-1.23275 -2.435429,-3.06684 l 0,-9.41098 4.179316,0 0,-1.14254 -4.179316,0 0,-4.17932 -1.142548,0 -0.180402,4.17932 -2.285094,0.12027 0,1.02227 2.255027,0 0,9.29072"
         id="path4089"
         style="font-variant:normal;font-weight:300;font-stretch:normal;font-size:30.06702805px;line-height:79.00000215%;font-family:'Source Sans Pro';-inkscape-font-specification:'Source Sans Pro Light';text-align:start;text-anchor:start;fill:#56347c;fill-opacity:1"
         inkscape:connector-curvature="0" />
      <path
         d="m -35.760285,-122.1913 1.32295,0 0,-10.88426 c 1.773953,-1.80402 3.006704,-2.70604 4.720523,-2.70604 2.345226,0 3.307373,1.44322 3.307373,4.51006 l 0,9.08024 1.322949,0 0,-9.26064 c 0,-3.72831 -1.383086,-5.53234 -4.359719,-5.53234 -1.984422,0 -3.487776,1.11248 -4.991126,2.61583 l 0,-3.1871 0,-6.25394 -1.32295,0 0,21.61819"
         id="path4091"
         style="font-variant:normal;font-weight:300;font-stretch:normal;font-size:30.06702805px;line-height:79.00000215%;font-family:'Source Sans Pro';-inkscape-font-specification:'Source Sans Pro Light';text-align:start;text-anchor:start;fill:#56347c;fill-opacity:1"
         inkscape:connector-curvature="0" />
      <path
         d="m -21.107306,-129.37732 c 0,4.72052 2.976639,7.54682 6.67488,7.54682 2.10469,0 3.397575,-0.7216 4.5401213,-1.41315 l -0.5412063,-1.02227 c -1.082412,0.78174 -2.315163,1.29288 -3.878647,1.29288 -3.247236,0 -5.381998,-2.61584 -5.442132,-6.25394 l 10.4031918,0 c 0.060134,-0.36081 0.060134,-0.72161 0.060134,-1.08242 0,-4.23944 -2.1046958,-6.67488 -5.5323328,-6.67488 -3.217169,0 -6.284009,2.88644 -6.284009,7.60696 m 1.353016,-0.87194 c 0.30067,-3.45771 2.495566,-5.59247 4.96106,-5.59247 2.585762,0 4.239451,1.89423 4.239451,5.59247 l -9.200511,0"
         id="path4093"
         style="font-variant:normal;font-weight:300;font-stretch:normal;font-size:30.06702805px;line-height:79.00000215%;font-family:'Source Sans Pro';-inkscape-font-specification:'Source Sans Pro Light';text-align:start;text-anchor:start;fill:#56347c;fill-opacity:1"
         inkscape:connector-curvature="0" />
      <path
         d="m -6.7526479,-126.34055 c 0,2.52563 1.7138233,4.51005 4.4198532,4.51005 1.68375184,0 3.09690511,-0.78174 4.359719,-1.89422 l 0.090201,0 0.3307373,1.53342 3.6080434,0 0,-8.53904 c 0,-4.57018 -2.1046958,-6.73501 -5.92320455,-6.73501 -2.34522585,0 -4.47998905,0.81181 -6.37420995,1.95436 l 1.5634855,2.9165 c 1.4432159,-0.84188 2.7060338,-1.35302 3.96884767,-1.35302 1.59355089,0 2.25502723,0.84188 2.34522823,2.16483 -5.8931316,0.60134 -8.3887009,2.31516 -8.3887009,5.44213 m 4.209384,-0.33074 c 0,-1.14254 1.0222821,-2.04455 4.1793169,-2.46549 l 0,2.61583 c -0.78174199,0.78174 -1.44321841,1.26281 -2.46549634,1.26281 -1.05234496,0 -1.71382056,-0.451 -1.71382056,-1.41315"
         id="path4095"
         style="font-weight:bold;-inkscape-font-specification:'Source Sans Pro Bold';fill:#56347c;fill-opacity:1"
         inkscape:connector-curvature="0" />
      <path
         d="m 9.8203923,-122.1913 4.4198527,0 0,-10.07245 c 0.932077,-0.96215 1.804023,-1.44322 2.525631,-1.44322 1.262814,0 1.834088,0.66148 1.834088,2.8263 l 0,8.68937 4.419854,0 0,-10.07245 c 0.962144,-0.96215 1.804022,-1.44322 2.555697,-1.44322 1.262814,0 1.834089,0.66148 1.834089,2.8263 l 0,8.68937 4.419853,0 0,-9.26064 c 0,-3.72831 -1.443221,-6.01341 -4.66039,-6.01341 -1.984421,0 -3.367508,1.14255 -4.690456,2.49556 -0.751675,-1.59355 -2.014493,-2.49556 -4.119183,-2.49556 -1.954355,0 -3.277307,1.05235 -4.510054,2.28509 l -0.120268,0 -0.30067,-1.92429 -3.6080437,0 0,14.91325"
         id="path4097"
         style="font-weight:bold;-inkscape-font-specification:'Source Sans Pro Bold';fill:#56347c;fill-opacity:1"
         inkscape:connector-curvature="0" />
      <path
         d="m 35.600517,-122.1913 4.419853,0 0,-10.07245 c 0.962144,-0.93208 1.653688,-1.44322 2.766167,-1.44322 1.262814,0 1.834088,0.66148 1.834088,2.8263 l 0,8.68937 4.419853,0 0,-9.26064 c 0,-3.72831 -1.383086,-6.01341 -4.630322,-6.01341 -2.014489,0 -3.517843,1.05235 -4.780657,2.25503 l -0.120268,0 -0.300671,-1.89423 -3.608043,0 0,14.91325"
         id="path4099"
         style="font-weight:bold;-inkscape-font-specification:'Source Sans Pro Bold';fill:#56347c;fill-opacity:1"
         inkscape:connector-curvature="0" />
      <path
         d="m 51.934902,-129.64792 c 0,4.93099 3.277311,7.81742 7.546825,7.81742 1.773952,0 3.75838,-0.6314 5.291796,-1.68375 l -1.473284,-2.67596 c -1.082412,0.66147 -2.104693,0.99221 -3.217172,0.99221 -1.984422,0 -3.487776,-0.99222 -3.878647,-3.24724 l 8.929908,0 c 0.0902,-0.36081 0.180402,-1.08242 0.180402,-1.86416 0,-4.05904 -2.104696,-7.15595 -6.344143,-7.15595 -3.577973,0 -7.035685,2.97664 -7.035685,7.81743 m 4.239451,-1.53342 c 0.30067,-1.98442 1.503353,-2.9165 2.886435,-2.9165 1.773953,0 2.495563,1.20268 2.495563,2.9165 l -5.381998,0"
         id="path4101"
         style="font-weight:bold;-inkscape-font-specification:'Source Sans Pro Bold';fill:#56347c;fill-opacity:1"
         inkscape:connector-curvature="0" />
      <path
         d="m 67.045932,-123.90512 c 1.50335,1.23275 3.75838,2.07462 5.712735,2.07462 3.998911,0 6.133674,-2.10469 6.133674,-4.81072 0,-2.7361 -2.134761,-3.78845 -4.028982,-4.47999 -1.533417,-0.57127 -2.916502,-0.93208 -2.916502,-1.89422 0,-0.75167 0.541208,-1.17261 1.683754,-1.17261 1.052345,0 2.074626,0.48107 3.157038,1.26281 l 1.984424,-2.6459 c -1.292881,-0.96214 -2.976638,-1.89422 -5.26173,-1.89422 -3.457705,0 -5.712736,1.89423 -5.712736,4.66039 0,2.46549 2.134761,3.69824 3.938781,4.38979 1.533417,0.60134 3.03677,1.05234 3.03677,2.04455 0,0.78175 -0.571275,1.26282 -1.894223,1.26282 -1.262814,0 -2.495565,-0.54121 -3.848579,-1.56349 l -1.984424,2.76617"
         id="path4103"
         style="font-weight:bold;-inkscape-font-specification:'Source Sans Pro Bold';fill:#56347c;fill-opacity:1"
         inkscape:connector-curvature="0" />
      <path
         d="m 83.894272,-139.29944 c 1.50335,0 2.555697,-0.96214 2.555697,-2.31516 0,-1.35301 -1.052347,-2.28509 -2.555697,-2.28509 -1.473283,0 -2.555698,0.93208 -2.555698,2.28509 0,1.35302 1.082415,2.31516 2.555698,2.31516 m -2.194893,17.10814 4.419853,0 0,-14.91325 -4.419853,0 0,14.91325"
         id="path4105"
         style="font-weight:bold;-inkscape-font-specification:'Source Sans Pro Bold';fill:#56347c;fill-opacity:1"
         inkscape:connector-curvature="0" />
      <path
         d="m 89.107617,-129.64792 c 0,4.96105 3.217176,7.81742 7.366422,7.81742 1.623617,0 3.517843,-0.60134 4.961061,-1.86415 l -1.773956,-2.79623 c -0.721608,0.57127 -1.593554,1.08241 -2.675966,1.08241 -1.924288,0 -3.33744,-1.65369 -3.33744,-4.23945 0,-2.58576 1.353018,-4.23945 3.487775,-4.23945 0.691541,0 1.353017,0.2706 2.074625,0.87194 l 2.014492,-2.7361 c -0.99221,-1.02228 -2.525633,-1.71382 -4.35972,-1.71382 -4.119179,0 -7.757293,2.85637 -7.757293,7.81743"
         id="path4107"
         style="font-weight:bold;-inkscape-font-specification:'Source Sans Pro Bold';fill:#56347c;fill-opacity:1"
         inkscape:connector-curvature="0" />
      <path
         d="m 105.5181,-140.11125 c 0.66147,0 1.20268,-0.48107 1.20268,-1.17261 0,-0.75168 -0.54121,-1.20268 -1.20268,-1.20268 -0.66148,0 -1.20268,0.451 -1.20268,1.20268 0,0.69154 0.5412,1.17261 1.20268,1.17261 m -0.69154,17.91995 1.32295,0 0,-14.43217 -1.32295,0 0,14.43217"
         id="path4109"
         style="font-variant:normal;font-weight:300;font-stretch:normal;font-size:30.06702805px;line-height:79.00000215%;font-family:'Source Sans Pro';-inkscape-font-specification:'Source Sans Pro Light';text-align:start;text-anchor:start;fill:#56347c;fill-opacity:1"
         inkscape:connector-curvature="0" />
      <path
         d="m 111.69735,-122.1913 1.32294,0 0,-10.88426 c 1.77396,-1.80402 3.00671,-2.70604 4.72053,-2.70604 2.34522,0 3.30737,1.44322 3.30737,4.51006 l 0,9.08024 1.32295,0 0,-9.26064 c 0,-3.72831 -1.38309,-5.53234 -4.35972,-5.53234 -1.98442,0 -3.48778,1.11248 -4.96106,2.58577 l -0.0902,0 -0.12027,-2.22496 -1.14254,0 0,14.43217"
         id="path4111"
         style="font-variant:normal;font-weight:300;font-stretch:normal;font-size:30.06702805px;line-height:79.00000215%;font-family:'Source Sans Pro';-inkscape-font-specification:'Source Sans Pro Light';text-align:start;text-anchor:start;fill:#56347c;fill-opacity:1"
         inkscape:connector-curvature="0" />
      <path
         d="m 126.46778,-129.37732 c 0,4.78065 2.8263,7.54682 6.55461,7.54682 1.83409,0 3.36751,-0.81181 4.60026,-1.92428 l -0.69155,-0.90202 c -0.99221,0.90201 -2.31516,1.65369 -3.84858,1.65369 -3.15703,0 -5.23166,-2.58577 -5.23166,-6.37421 0,-3.81851 2.2851,-6.43434 5.23166,-6.43434 1.41315,0 2.49557,0.66147 3.42765,1.53342 l 0.78174,-0.93208 c -0.96215,-0.90201 -2.25503,-1.77396 -4.23945,-1.77396 -3.51784,0 -6.58468,2.76617 -6.58468,7.60696"
         id="path4113"
         style="font-variant:normal;font-weight:300;font-stretch:normal;font-size:30.06702805px;line-height:79.00000215%;font-family:'Source Sans Pro';-inkscape-font-specification:'Source Sans Pro Light';text-align:start;text-anchor:start;fill:#56347c;fill-opacity:1"
         inkscape:connector-curvature="0" />
      <path
         d="m 139.44593,-129.37732 c 0,4.78065 3.0067,7.54682 6.46441,7.54682 3.48777,0 6.49448,-2.76617 6.49448,-7.54682 0,-4.84079 -3.00671,-7.60696 -6.49448,-7.60696 -3.45771,0 -6.46441,2.76617 -6.46441,7.60696 m 1.38308,0 c 0,-3.81851 2.16483,-6.43434 5.08133,-6.43434 2.9165,0 5.11139,2.61583 5.11139,6.43434 0,3.78844 -2.19489,6.37421 -5.11139,6.37421 -2.9165,0 -5.08133,-2.58577 -5.08133,-6.37421"
         id="path4115"
         style="font-variant:normal;font-weight:300;font-stretch:normal;font-size:30.06702805px;line-height:79.00000215%;font-family:'Source Sans Pro';-inkscape-font-specification:'Source Sans Pro Light';text-align:start;text-anchor:start;fill:#56347c;fill-opacity:1"
         inkscape:connector-curvature="0" />
      <path
         d="m 156.7993,-119.365 c 0,-1.02228 0.57128,-2.13476 1.89423,-3.03677 0.75167,0.1804 1.50335,0.24054 1.80402,0.24054 l 3.0969,0 c 2.16483,0 3.33744,0.60134 3.33744,2.19489 0,1.80402 -2.07463,3.63811 -5.32186,3.63811 -3.06684,0 -4.81073,-1.23275 -4.81073,-3.03677 m -1.26281,0.12027 c 0,2.43543 2.2851,3.99891 5.9232,3.99891 4.14925,0 6.82522,-2.37529 6.82522,-4.87085 0,-2.2851 -1.50336,-3.30738 -4.75059,-3.30738 l -3.09691,0 c -2.16482,0 -2.76616,-0.84188 -2.76616,-1.89422 0,-0.96214 0.5412,-1.56349 1.17261,-2.07463 0.66148,0.39088 1.59356,0.60135 2.40536,0.60135 2.8263,0 5.0212,-2.13477 5.0212,-5.08133 0,-1.53342 -0.66148,-2.8263 -1.59355,-3.63811 l 3.3675,0 0,-1.11248 -4.90092,0 c -0.45101,-0.1804 -1.11248,-0.36081 -1.89423,-0.36081 -2.82629,0 -5.08132,2.1047 -5.08132,5.08133 0,1.74389 0.90201,3.18711 1.80402,3.96885 l 0,0.12027 c -0.63141,0.451 -1.56349,1.35301 -1.56349,2.64589 0,1.11248 0.54121,1.89423 1.26282,2.31517 l 0,0.12026 c -1.32295,0.96215 -2.13476,2.22497 -2.13476,3.48778 m 5.71273,-8.59917 c -2.01448,0 -3.75837,-1.62362 -3.75837,-4.05905 0,-2.46549 1.71382,-3.99891 3.75837,-3.99891 2.04456,0 3.72832,1.56348 3.72832,3.99891 0,2.43543 -1.74389,4.05905 -3.72832,4.05905"
         id="path4117"
         style="font-variant:normal;font-weight:300;font-stretch:normal;font-size:30.06702805px;line-height:79.00000215%;font-family:'Source Sans Pro';-inkscape-font-specification:'Source Sans Pro Light';text-align:start;text-anchor:start;fill:#56347c;fill-opacity:1"
         inkscape:connector-curvature="0" />
      <path
         d="m 171.36161,-122.1913 1.32295,0 0,-10.88426 c 1.77395,-1.80402 3.0067,-2.70604 4.72052,-2.70604 2.34522,0 3.30737,1.44322 3.30737,4.51006 l 0,9.08024 1.32295,0 0,-9.26064 c 0,-3.72831 -1.38308,-5.53234 -4.35972,-5.53234 -1.98442,0 -3.48777,1.11248 -4.96106,2.58577 l -0.0902,0 -0.12027,-2.22496 -1.14254,0 0,14.43217"
         id="path4119"
         style="font-variant:normal;font-weight:300;font-stretch:normal;font-size:30.06702805px;line-height:79.00000215%;font-family:'Source Sans Pro';-inkscape-font-specification:'Source Sans Pro Light';text-align:start;text-anchor:start;fill:#56347c;fill-opacity:1"
         inkscape:connector-curvature="0" />
      <path
         d="m 188.02626,-140.11125 c 0.66148,0 1.20268,-0.48107 1.20268,-1.17261 0,-0.75168 -0.5412,-1.20268 -1.20268,-1.20268 -0.66147,0 -1.20268,0.451 -1.20268,1.20268 0,0.69154 0.54121,1.17261 1.20268,1.17261 m -0.69154,17.91995 1.32295,0 0,-14.43217 -1.32295,0 0,14.43217"
         id="path4121"
         style="font-variant:normal;font-weight:300;font-stretch:normal;font-size:30.06702805px;line-height:79.00000215%;font-family:'Source Sans Pro';-inkscape-font-specification:'Source Sans Pro Light';text-align:start;text-anchor:start;fill:#56347c;fill-opacity:1"
         inkscape:connector-curvature="0" />
      <path
         d="m 194.53623,-126.19021 c 0,2.58576 0.81181,4.35971 3.60804,4.35971 0.60134,0 1.50336,-0.24053 2.34523,-0.5412 l -0.3608,-1.08241 c -0.51114,0.24053 -1.26282,0.451 -1.80402,0.451 -1.98443,0 -2.43543,-1.23275 -2.43543,-3.06684 l 0,-9.41098 4.17931,0 0,-1.14254 -4.17931,0 0,-4.17932 -1.14255,0 -0.1804,4.17932 -2.2851,0.12027 0,1.02227 2.25503,0 0,9.29072"
         id="path4123"
         style="font-variant:normal;font-weight:300;font-stretch:normal;font-size:30.06702805px;line-height:79.00000215%;font-family:'Source Sans Pro';-inkscape-font-specification:'Source Sans Pro Light';text-align:start;text-anchor:start;fill:#56347c;fill-opacity:1"
         inkscape:connector-curvature="0" />
      <path
         d="m 202.10514,-129.37732 c 0,4.78065 3.0067,7.54682 6.46441,7.54682 3.48777,0 6.49448,-2.76617 6.49448,-7.54682 0,-4.84079 -3.00671,-7.60696 -6.49448,-7.60696 -3.45771,0 -6.46441,2.76617 -6.46441,7.60696 m 1.38308,0 c 0,-3.81851 2.16483,-6.43434 5.08133,-6.43434 2.9165,0 5.11139,2.61583 5.11139,6.43434 0,3.78844 -2.19489,6.37421 -5.11139,6.37421 -2.9165,0 -5.08133,-2.58577 -5.08133,-6.37421"
         id="path4125"
         style="font-variant:normal;font-weight:300;font-stretch:normal;font-size:30.06702805px;line-height:79.00000215%;font-family:'Source Sans Pro';-inkscape-font-specification:'Source Sans Pro Light';text-align:start;text-anchor:start;fill:#56347c;fill-opacity:1"
         inkscape:connector-curvature="0" />
      <path
         d="m 218.58659,-126.82162 c 0,3.0067 1.02228,4.99112 4.05904,4.99112 0.99222,0 1.74389,-0.15033 2.22496,-0.3608 l -0.5412,-3.27731 c -0.24054,0.0601 -0.36081,0.0601 -0.54121,0.0601 -0.3608,0 -0.78174,-0.30067 -0.78174,-1.23275 l 0,-16.62707 -4.41985,0 0,16.44667"
         id="path4127"
         style="font-weight:bold;-inkscape-font-specification:'Source Sans Pro Bold';fill:#56347c;fill-opacity:1"
         inkscape:connector-curvature="0" />
      <path
         d="m 229.35527,-139.29944 c 1.50335,0 2.5557,-0.96214 2.5557,-2.31516 0,-1.35301 -1.05235,-2.28509 -2.5557,-2.28509 -1.47328,0 -2.5557,0.93208 -2.5557,2.28509 0,1.35302 1.08242,2.31516 2.5557,2.31516 m -2.19489,17.10814 4.41985,0 0,-14.91325 -4.41985,0 0,14.91325"
         id="path4129"
         style="font-weight:bold;-inkscape-font-specification:'Source Sans Pro Bold';fill:#56347c;fill-opacity:1"
         inkscape:connector-curvature="0" />
      <path
         d="m 238.8682,-122.1913 5.1114,0 4.87085,-14.91325 -4.23945,0 -1.95435,7.03569 c -0.39088,1.47328 -0.78175,3.03677 -1.14255,4.60025 l -0.12027,0 c -0.39087,-1.56348 -0.78174,-3.12697 -1.17261,-4.60025 l -1.92429,-7.03569 -4.44992,0 5.02119,14.91325"
         id="path4131"
         style="font-weight:bold;-inkscape-font-specification:'Source Sans Pro Bold';fill:#56347c;fill-opacity:1"
         inkscape:connector-curvature="0" />
      <path
         d="m 250.07191,-129.64792 c 0,4.93099 3.27731,7.81742 7.54683,7.81742 1.77395,0 3.75838,-0.6314 5.29179,-1.68375 l -1.47328,-2.67596 c -1.08241,0.66147 -2.1047,0.99221 -3.21717,0.99221 -1.98443,0 -3.48778,-0.99222 -3.87865,-3.24724 l 8.92991,0 c 0.0902,-0.36081 0.1804,-1.08242 0.1804,-1.86416 0,-4.05904 -2.1047,-7.15595 -6.34414,-7.15595 -3.57798,0 -7.03569,2.97664 -7.03569,7.81743 m 4.23945,-1.53342 c 0.30067,-1.98442 1.50335,-2.9165 2.88644,-2.9165 1.77395,0 2.49556,1.20268 2.49556,2.9165 l -5.382,0"
         id="path4133"
         style="font-weight:bold;-inkscape-font-specification:'Source Sans Pro Bold';fill:#56347c;fill-opacity:1"
         inkscape:connector-curvature="0" />
      <path
         d="m 265.51369,-123.81492 c 1.29288,1.08241 3.15704,1.98442 5.29179,1.98442 3.12697,0 4.87086,-1.89422 4.87086,-4.05904 0,-2.8263 -2.4655,-3.57798 -4.72052,-4.41986 -1.71382,-0.6314 -3.39758,-1.26281 -3.39758,-2.9165 0,-1.32295 1.02228,-2.61583 3.24724,-2.61583 1.47329,0 2.49557,0.57127 3.45771,1.29288 l 0.72161,-0.93208 c -1.05235,-0.87194 -2.58577,-1.50335 -4.11918,-1.50335 -3.0067,0 -4.66039,1.74389 -4.66039,3.84858 0,2.4655 2.40536,3.33744 4.60025,4.11919 1.65369,0.60134 3.51784,1.38308 3.51784,3.1871 0,1.53342 -1.17261,2.85637 -3.42764,2.85637 -2.07462,0 -3.36751,-0.81181 -4.60025,-1.83409 l -0.78174,0.99221"
         id="path4135"
         style="font-variant:normal;font-weight:300;font-stretch:normal;font-size:30.06702805px;line-height:79.00000215%;font-family:'Source Sans Pro';-inkscape-font-specification:'Source Sans Pro Light';text-align:start;text-anchor:start;fill:#56347c;fill-opacity:1"
         inkscape:connector-curvature="0" />
      <path
         d="m 277.72983,-117.0799 -0.30068,1.17261 c 0.39088,0.1804 0.93208,0.30067 1.47329,0.30067 2.58576,0 4.02898,-2.3753 4.84079,-4.78066 l 5.71274,-16.23619 -1.35302,0 -3.0969,9.08024 c -0.39087,1.20268 -0.87195,2.76617 -1.32295,4.02898 l -0.12027,0 c -0.54121,-1.26281 -1.11248,-2.8263 -1.56349,-4.02898 l -3.48777,-9.08024 -1.44322,0 5.92321,14.70277 -0.39088,1.26282 c -0.7216,2.19489 -1.92429,3.81851 -3.69824,3.81851 -0.42094,0 -0.87194,-0.12027 -1.17261,-0.24053"
         id="path4137"
         style="font-variant:normal;font-weight:300;font-stretch:normal;font-size:30.06702805px;line-height:79.00000215%;font-family:'Source Sans Pro';-inkscape-font-specification:'Source Sans Pro Light';text-align:start;text-anchor:start;fill:#56347c;fill-opacity:1"
         inkscape:connector-curvature="0" />
      <path
         d="m 290.7653,-123.81492 c 1.29288,1.08241 3.15704,1.98442 5.2918,1.98442 3.12697,0 4.87086,-1.89422 4.87086,-4.05904 0,-2.8263 -2.4655,-3.57798 -4.72053,-4.41986 -1.71381,-0.6314 -3.39757,-1.26281 -3.39757,-2.9165 0,-1.32295 1.02228,-2.61583 3.24724,-2.61583 1.47328,0 2.49556,0.57127 3.45771,1.29288 l 0.72161,-0.93208 c -1.05235,-0.87194 -2.58577,-1.50335 -4.11919,-1.50335 -3.0067,0 -4.66039,1.74389 -4.66039,3.84858 0,2.4655 2.40537,3.33744 4.60026,4.11919 1.65368,0.60134 3.51784,1.38308 3.51784,3.1871 0,1.53342 -1.17261,2.85637 -3.42764,2.85637 -2.07462,0 -3.36751,-0.81181 -4.60025,-1.83409 l -0.78175,0.99221"
         id="path4139"
         style="font-variant:normal;font-weight:300;font-stretch:normal;font-size:30.06702805px;line-height:79.00000215%;font-family:'Source Sans Pro';-inkscape-font-specification:'Source Sans Pro Light';text-align:start;text-anchor:start;fill:#56347c;fill-opacity:1"
         inkscape:connector-curvature="0" />
      <path
         d="m 305.05607,-126.19021 c 0,2.58576 0.81181,4.35971 3.60804,4.35971 0.60134,0 1.50335,-0.24053 2.34523,-0.5412 l -0.36081,-1.08241 c -0.51113,0.24053 -1.26281,0.451 -1.80402,0.451 -1.98442,0 -2.43543,-1.23275 -2.43543,-3.06684 l 0,-9.41098 4.17932,0 0,-1.14254 -4.17932,0 0,-4.17932 -1.14254,0 -0.18041,4.17932 -2.28509,0.12027 0,1.02227 2.25503,0 0,9.29072"
         id="path4141"
         style="font-variant:normal;font-weight:300;font-stretch:normal;font-size:30.06702805px;line-height:79.00000215%;font-family:'Source Sans Pro';-inkscape-font-specification:'Source Sans Pro Light';text-align:start;text-anchor:start;fill:#56347c;fill-opacity:1"
         inkscape:connector-curvature="0" />
      <path
         d="m 312.62497,-129.37732 c 0,4.72052 2.97664,7.54682 6.67488,7.54682 2.10469,0 3.39758,-0.7216 4.54013,-1.41315 l -0.54121,-1.02227 c -1.08241,0.78174 -2.31516,1.29288 -3.87865,1.29288 -3.24723,0 -5.382,-2.61584 -5.44213,-6.25394 l 10.40319,0 c 0.0601,-0.36081 0.0601,-0.72161 0.0601,-1.08242 0,-4.23944 -2.1047,-6.67488 -5.53234,-6.67488 -3.21717,0 -6.28401,2.88644 -6.28401,7.60696 m 1.35302,-0.87194 c 0.30067,-3.45771 2.49557,-5.59247 4.96106,-5.59247 2.58576,0 4.23945,1.89423 4.23945,5.59247 l -9.20051,0"
         id="path4143"
         style="font-variant:normal;font-weight:300;font-stretch:normal;font-size:30.06702805px;line-height:79.00000215%;font-family:'Source Sans Pro';-inkscape-font-specification:'Source Sans Pro Light';text-align:start;text-anchor:start;fill:#56347c;fill-opacity:1"
         inkscape:connector-curvature="0" />
      <path
         d="m 328.33263,-122.1913 1.32295,0 0,-10.88426 c 1.59355,-1.80402 3.03677,-2.70604 4.32965,-2.70604 2.22496,0 3.24724,1.44322 3.24724,4.51006 l 0,9.08024 1.32295,0 0,-10.88426 c 1.59355,-1.80402 2.97664,-2.70604 4.32965,-2.70604 2.19489,0 3.21717,1.44322 3.21717,4.51006 l 0,9.08024 1.35302,0 0,-9.26064 c 0,-3.72831 -1.44322,-5.53234 -4.32965,-5.53234 -1.65369,0 -3.24724,1.14255 -4.90093,2.94657 -0.51114,-1.77395 -1.68375,-2.94657 -3.99891,-2.94657 -1.59355,0 -3.24724,1.11248 -4.54012,2.58577 l -0.0902,0 -0.12027,-2.22496 -1.14255,0 0,14.43217"
         id="path4145"
         style="font-variant:normal;font-weight:300;font-stretch:normal;font-size:30.06702805px;line-height:79.00000215%;font-family:'Source Sans Pro';-inkscape-font-specification:'Source Sans Pro Light';text-align:start;text-anchor:start;fill:#56347c;fill-opacity:1"
         inkscape:connector-curvature="0" />
    </g>
  </g>
  <g
     transform="matrix(1.2279668,0,0,1.2279668,-8.6173684,-2.3332633)"
     id="g5374"
     style="fill:#56347c;fill-opacity:1">
    <path
       d="m 88.342066,56.730068 0,16.662869 c 0,0.510289 -0.341075,0.643984 -0.760689,0.296591 L 79.077314,66.649116 C 78.658103,66.302056 78.317029,65.609 78.317029,65.098711 l 0,-2.097683 -2.657657,-2.16078 c -2.850156,-2.317289 -5.132376,-7.0217 -5.132376,-10.464763 0,-3.442323 2.29778,-4.339449 5.132376,-2.002743 l 2.657657,2.160782 0,-2.097681 c 0,-0.510046 0.341074,-0.643737 0.760285,-0.296677 l 8.503862,7.040243 c 0.420546,0.346435 0.76089,1.040613 0.76089,1.550659 z M 75.81131,51.432227 c -1.50022,-1.236708 -2.716309,-0.761675 -2.716309,1.060197 0,1.822367 1.216089,4.301887 2.716309,5.538595 l 2.505719,2.035532 0,-6.599035 -2.505719,-2.035532 z"
       id="path5189-4"
       style="fill:#56347c;fill-opacity:1"
       inkscape:connector-curvature="0" />
    <g
       transform="matrix(0.46410314,0.9267926,-0.9267926,0.46410314,77.258376,-14.89278)"
       id="g3500"
       style="fill:#56347c;fill-opacity:1">
      <path
         d="M 97.976,37.8 C 97.972,37.779 97.968,37.758 97.963,37.737 97.947,37.669 97.927,37.602 97.901,37.538 97.898,37.53 97.896,37.522 97.893,37.515 97.863,37.446 97.826,37.38 97.786,37.317 97.775,37.299 97.762,37.283 97.75,37.266 97.715,37.216 97.676,37.169 97.634,37.125 97.623,37.113 97.613,37.101 97.601,37.089 97.548,37.037 97.49,36.989 97.428,36.946 97.413,36.935 97.396,36.927 97.38,36.917 97.349,36.898 97.32,36.877 97.288,36.86 L 96.743,36.576 71.837016,47.695585 25.252,24.269 l -0.666,0.33 c -0.006,0.003 -0.01,0.007 -0.016,0.01 -0.047,0.024 -0.09,0.055 -0.134,0.084 -0.029,0.019 -0.06,0.036 -0.087,0.057 -0.034,0.027 -0.063,0.059 -0.094,0.09 -0.031,0.03 -0.065,0.059 -0.093,0.092 -0.022,0.026 -0.039,0.056 -0.06,0.084 -0.031,0.043 -0.063,0.086 -0.088,0.132 -0.003,0.005 -0.007,0.01 -0.01,0.015 -0.015,0.028 -0.022,0.057 -0.035,0.085 -0.02,0.046 -0.041,0.09 -0.056,0.138 -0.013,0.041 -0.02,0.082 -0.029,0.123 -0.009,0.043 -0.019,0.085 -0.024,0.128 -0.005,0.043 -0.004,0.085 -0.005,0.127 -0.001,0.044 -0.003,0.087 0.001,0.13 0.002,0.023 0.005,0.046 0.009,0.069 -0.006,0.051 -0.015,0.1 -0.015,0.152 L 23.854,41.674 27.21708,40.107419 63.622,58.211 38.537615,69.347048 l -18.939,-9.469 L 2.6090632,51.38471 c -0.012,-0.006 -0.025,-0.009 -0.038,-0.014 -0.042,-0.02 -0.086,-0.035 -0.131,-0.05 -0.04,-0.014 -0.08,-0.028 -0.121,-0.038 -0.038,-0.009 -0.078,-0.014 -0.117,-0.019 -0.049,-0.007 -0.098,-0.014 -0.148,-0.015 -0.013,0 -0.024,-0.004 -0.037,-0.004 -0.025,0 -0.049,0.006 -0.074,0.007 -0.05,0.004 -0.099,0.007 -0.148,0.016 -0.04,0.007 -0.079,0.017 -0.118,0.027 -0.043,0.011 -0.085,0.024 -0.127,0.039 -0.039,0.015 -0.077,0.032 -0.114,0.051 -0.039,0.019 -0.077,0.039 -0.115,0.062 -0.035,0.022 -0.068,0.045 -0.1,0.07 -0.035,0.027 -0.07,0.054 -0.103,0.085 -0.031,0.029 -0.059,0.059 -0.087,0.09 -0.028,0.032 -0.056,0.064 -0.082,0.099 -0.028,0.038 -0.052,0.079 -0.076,0.12 -0.013,0.023 -0.03,0.042 -0.042,0.066 -0.006,0.012 -0.008,0.025 -0.014,0.037 -0.02,0.043 -0.036,0.089 -0.051,0.135 -0.013,0.039 -0.027,0.078 -0.036,0.117 -0.009,0.04 -0.014,0.081 -0.02,0.122 -0.007,0.048 -0.013,0.095 -0.014,0.142 0.001,0.014 -0.003,0.026 -0.003,0.039 l 0,19.531 c 0,0.026 0.006,0.051 0.008,0.077 0.003,0.048 0.006,0.096 0.014,0.143 0.007,0.042 0.017,0.082 0.028,0.122 0.011,0.042 0.023,0.083 0.038,0.123 0.015,0.04 0.033,0.079 0.052,0.117 0.019,0.038 0.038,0.076 0.061,0.112 0.022,0.035 0.046,0.069 0.071,0.102 0.027,0.035 0.054,0.069 0.084,0.102 0.028,0.031 0.059,0.059 0.09,0.087 0.032,0.029 0.064,0.056 0.1,0.082 0.038,0.027 0.077,0.051 0.118,0.075 0.023,0.014 0.043,0.031 0.068,0.043 L 37.945615,91.543048 c 0.007,0.004 0.015,0.004 0.022,0.008 0.017,0.008 0.032,0.017 0.049,0.025 0.01,0.004 0.02,0.007 0.03,0.011 0.056,0.022 0.113,0.041 0.171,0.055 0.012,0.003 0.024,0.006 0.036,0.009 0.016,0.003 0.032,0.005 0.048,0.008 0.077,0.014 0.154,0.024 0.232,0.024 0.001,0 0.002,0 0.003,0 l 0.001,0 10e-4,0 c 10e-4,0 0.002,0 0.003,0 0.078,0 0.156,-0.01 0.232,-0.024 0.016,-0.003 0.032,-0.005 0.048,-0.008 0.012,-0.003 0.024,-0.006 0.036,-0.009 0.058,-0.014 0.115,-0.033 0.17,-0.055 0.01,-0.004 0.021,-0.007 0.031,-0.011 0.017,-0.007 0.032,-0.017 0.049,-0.024 0.007,-0.003 0.015,-0.004 0.022,-0.008 L 61.746,81.642 l 9.462,5.221 c 0.018,0.01 0.037,0.017 0.056,0.026 0.019,0.01 0.038,0.02 0.058,0.029 0.008,0.003 0.016,0.007 0.024,0.01 0.031,0.013 0.063,0.023 0.095,0.033 0.019,0.006 0.038,0.013 0.058,0.019 0.021,0.006 0.043,0.011 0.064,0.015 0.015,0.003 0.029,0.006 0.044,0.008 0.007,0.001 0.015,0.003 0.022,0.004 0.014,0.002 0.028,0.006 0.042,0.008 0.059,0.008 0.117,0.013 0.176,0.013 l 0.001,0 0.001,0 c 10e-4,0 0.002,0 0.003,0 0.078,0 0.155,-0.01 0.232,-0.024 0.013,-0.002 0.026,-0.003 0.039,-0.006 0.01,-0.002 0.019,-0.006 0.029,-0.008 0.07,-0.017 0.14,-0.037 0.207,-0.065 0.007,-0.003 0.014,-0.007 0.021,-0.01 0.004,-0.002 0.008,-0.004 0.012,-0.006 0.006,-0.003 0.012,-0.003 0.018,-0.006 L 97.238,75.317 C 97.703,75.098 98,74.631 98,74.117 L 98,38.034 C 98,38.028 97.998,38.023 97.998,38.017 97.997,37.943 97.989,37.871 97.976,37.8 Z m -60.762385,40.617048 -7.614,3.666 3.972,1.986 3.641,-1.986 0,6.29 -33.8715518,-16.935338 0,-9.829 8.6775518,4.241338 -7.2569997,3.35 3.972,1.986 7.2689997,-3.378 4.313,2.051 -7.487,3.456 3.972,1.986 7.503,-3.482 4.621,2.344 -7.381,3.407 3.972,1.986 7.395,-3.434 4.303,2.111 z M 65.228,76.939 39.861615,88.216048 l 0,-16.57 L 65.228,60.37 Z M 3.3410632,58.52771 l 0,-3.31 33.8725518,16.603338 0,3.31 z"
         id="path3502"
         style="fill:#56347c;fill-opacity:1"
         inkscape:connector-curvature="0" />
    </g>
    <polygon
       points="45.366,56.241 39.076,59.22 33.117,56.241 39.407,53.262 "
       transform="matrix(0.44775907,0.89415425,-0.89415425,0.44775907,70.46318,-16.30443)"
       id="polygon3506"
       style="fill:#56347c;fill-opacity:1" />
    <polygon
       points="29.145,47.634 35.103,50.613 28.814,53.593 22.855,50.613 "
       transform="matrix(0.44775907,0.89415425,-0.89415425,0.44775907,70.02568,-16.55443)"
       id="polygon3508"
       style="fill:#56347c;fill-opacity:1" />
    <g
       transform="matrix(0,-0.2492475,0.19547686,0.16114179,71.005984,62.192969)"
       id="Captions"
       style="fill:#56347c;fill-opacity:1" />
    <g
       transform="translate(122.10986,-55.111168)"
       id="Captions-7"
       style="fill:#56347c;fill-opacity:1" />
    <path
       d="m 45.058193,34.347585 c 2.124399,2.704098 4.295157,7.985437 4.295157,12.865587 0,4.87818 -2.170758,6.542025 -4.295157,5.703941 0,-1.998055 0,-16.795084 0,-18.569528 z"
       id="path4818-2-4-3"
       style="fill:#56347c;fill-opacity:1"
       inkscape:connector-curvature="0" />
    <g
       transform="translate(74.936297,109.72221)"
       id="Your_Icon"
       style="fill:#56347c;fill-opacity:1" />
  </g>
</svg>
